<?xml version="1.0" encoding="UTF-8" standalone="no"?>
<svg
   xmlns:dc="http://purl.org/dc/elements/1.1/"
   xmlns:cc="http://creativecommons.org/ns#"
   xmlns:rdf="http://www.w3.org/1999/02/22-rdf-syntax-ns#"
   xmlns:svg="http://www.w3.org/2000/svg"
   xmlns="http://www.w3.org/2000/svg"
   xmlns:sodipodi="http://sodipodi.sourceforge.net/DTD/sodipodi-0.dtd"
   xmlns:inkscape="http://www.inkscape.org/namespaces/inkscape"
   version="1.1"
   x="0px"
   y="0px"
   viewBox="0 0 100 100"
   enable-background="new 0 0 100 100"
   xml:space="preserve"
   id="svg2"
   inkscape:version="0.91 r13725"
   sodipodi:docname="back.svg"><metadata
     id="metadata12"><rdf:RDF><cc:Work
         rdf:about=""><dc:format>image/svg+xml</dc:format><dc:type
           rdf:resource="http://purl.org/dc/dcmitype/StillImage" /><dc:title></dc:title></cc:Work></rdf:RDF></metadata><defs
     id="defs10" /><sodipodi:namedview
     pagecolor="#ffffff"
     bordercolor="#666666"
     borderopacity="1"
     objecttolerance="10"
     gridtolerance="10"
     guidetolerance="10"
     inkscape:pageopacity="0"
     inkscape:pageshadow="2"
     inkscape:window-width="1536"
     inkscape:window-height="801"
     id="namedview8"
     showgrid="false"
     inkscape:zoom="2.36"
     inkscape:cx="50"
     inkscape:cy="50"
     inkscape:window-x="-8"
     inkscape:window-y="-8"
     inkscape:window-maximized="1"
     inkscape:current-layer="svg2" /><g
     id="g4"><path
       d="M71.278,95.103c-1.113,0-2.226-0.425-3.075-1.273L24.374,50l43.83-43.83c1.699-1.697,4.451-1.697,6.15,0   c1.698,1.699,1.698,4.451,0,6.15L36.672,50l37.681,37.68c1.698,1.699,1.698,4.451,0,6.15   C73.504,94.679,72.391,95.103,71.278,95.103z"
       id="path6" /></g><path
     style="fill:#ffffff"
     d="M 69.788136,94.470572 C 69.088983,94.154852 58.648487,84.00872 46.587034,71.923619 L 24.657119,49.950703 47.020106,27.602469 69.383093,5.2542373 l 1.810763,0 c 2.9845,0 5.011614,2.8028016 3.924792,5.4266287 -0.267207,0.64509 -9.058049,9.743524 -19.535208,20.218742 L 36.534061,49.945462 55.765322,69.231203 c 14.63797,14.679441 19.296572,19.597081 19.504708,20.589255 0.682398,3.252978 -2.533975,5.981326 -5.481894,4.650114 z"
     id="path3340"
     inkscape:connector-curvature="0" /></svg>